<?xml version="1.0" encoding="UTF-8"?>
<svg xmlns="http://www.w3.org/2000/svg" xmlns:xlink="http://www.w3.org/1999/xlink" width="px" height="px" viewBox="0 0 20 5" version="1.1">
<g id="surface1">
<path style=" stroke:none;fill-rule:nonzero;fill:rgb(86.27451%,79.215686%,52.941176%);fill-opacity:1;" d="M 16.75 4.75 C 18.542969 4.75 20 3.742188 20 2.5 C 20 1.257812 18.542969 0.25 16.75 0.25 C 15.054688 0.25 13.660156 1.152344 13.515625 2.300781 L 11.175781 2.300781 L 11.175781 1.828125 L 0 1.828125 L 0 3.171875 L 11.175781 3.171875 L 11.175781 2.699219 L 13.515625 2.699219 C 13.660156 3.847656 15.054688 4.75 16.75 4.75 Z M 10.746094 2.773438 L 0.429688 2.773438 L 0.429688 2.226562 L 10.746094 2.226562 Z M 13.933594 2.5 C 13.933594 1.480469 15.195312 0.648438 16.75 0.648438 C 18.304688 0.648438 19.570312 1.480469 19.570312 2.5 C 19.570312 3.519531 18.304688 4.351562 16.75 4.351562 C 15.195312 4.351562 13.933594 3.519531 13.933594 2.5 Z M 13.933594 2.5 "/>
</g>
</svg>
